<svg width="16" height="16" viewBox="0 0 16 16" fill="none" xmlns="http://www.w3.org/2000/svg">
<path d="M1.33301 2.16659C1.33301 1.94557 1.42081 1.73361 1.57709 1.57733C1.73337 1.42105 1.94533 1.33325 2.16634 1.33325H5.49967C5.72069 1.33325 5.93265 1.42105 6.08893 1.57733C6.24521 1.73361 6.33301 1.94557 6.33301 2.16659V6.33325C6.33301 6.55427 6.24521 6.76623 6.08893 6.92251C5.93265 7.07879 5.72069 7.16659 5.49967 7.16659H2.16634C1.94533 7.16659 1.73337 7.07879 1.57709 6.92251C1.42081 6.76623 1.33301 6.55427 1.33301 6.33325V2.16659ZM9.66634 2.16659C9.66634 1.94557 9.75414 1.73361 9.91042 1.57733C10.0667 1.42105 10.2787 1.33325 10.4997 1.33325H13.833C14.054 1.33325 14.266 1.42105 14.4223 1.57733C14.5785 1.73361 14.6663 1.94557 14.6663 2.16659V3.83325C14.6663 4.05427 14.5785 4.26623 14.4223 4.42251C14.266 4.57879 14.054 4.66659 13.833 4.66659H10.4997C10.2787 4.66659 10.0667 4.57879 9.91042 4.42251C9.75414 4.26623 9.66634 4.05427 9.66634 3.83325V2.16659ZM1.33301 11.3333C1.33301 11.1122 1.42081 10.9003 1.57709 10.744C1.73337 10.5877 1.94533 10.4999 2.16634 10.4999H5.49967C5.72069 10.4999 5.93265 10.5877 6.08893 10.744C6.24521 10.9003 6.33301 11.1122 6.33301 11.3333V13.8333C6.33301 14.0543 6.24521 14.2662 6.08893 14.4225C5.93265 14.5788 5.72069 14.6666 5.49967 14.6666H2.16634C1.94533 14.6666 1.73337 14.5788 1.57709 14.4225C1.42081 14.2662 1.33301 14.0543 1.33301 13.8333V11.3333ZM9.66634 8.83325C9.66634 8.61224 9.75414 8.40028 9.91042 8.244C10.0667 8.08772 10.2787 7.99992 10.4997 7.99992H13.833C14.054 7.99992 14.266 8.08772 14.4223 8.244C14.5785 8.40028 14.6663 8.61224 14.6663 8.83325V13.8333C14.6663 14.0543 14.5785 14.2662 14.4223 14.4225C14.266 14.5788 14.054 14.6666 13.833 14.6666H10.4997C10.2787 14.6666 10.0667 14.5788 9.91042 14.4225C9.75414 14.2662 9.66634 14.0543 9.66634 13.8333V8.83325Z" stroke="#959595" stroke-width="1.5"/>
</svg>
