<svg width="26" height="26" viewBox="0 0 26 26" fill="none" xmlns="http://www.w3.org/2000/svg">
<path d="M11.9166 24.8625V22.6958C9.65967 22.4431 7.72303 21.5089 6.1067 19.8933C4.49037 18.2777 3.55617 16.341 3.30412 14.0833H1.13745V11.9167H3.30412C3.5569 9.65973 4.49145 7.7231 6.10779 6.10676C7.72412 4.49043 9.6604 3.55623 11.9166 3.30418V1.13751H14.0833V3.30418C16.3402 3.55696 18.2769 4.49151 19.8932 6.10785C21.5095 7.72418 22.4437 9.66046 22.6958 11.9167H24.8625V14.0833H22.6958C22.443 16.3403 21.5088 18.2769 19.8932 19.8933C18.2776 21.5096 16.341 22.4438 14.0833 22.6958V24.8625H11.9166ZM13 20.5833C15.0944 20.5833 16.8819 19.8431 18.3625 18.3625C19.843 16.882 20.5833 15.0945 20.5833 13C20.5833 10.9056 19.843 9.11807 18.3625 7.63751C16.8819 6.15696 15.0944 5.41668 13 5.41668C10.9055 5.41668 9.11801 6.15696 7.63745 7.63751C6.1569 9.11807 5.41662 10.9056 5.41662 13C5.41662 15.0945 6.1569 16.882 7.63745 18.3625C9.11801 19.8431 10.9055 20.5833 13 20.5833ZM13 17.3333C11.8083 17.3333 10.7881 16.909 9.93954 16.0604C9.09092 15.2118 8.66662 14.1917 8.66662 13C8.66662 11.8083 9.09092 10.7882 9.93954 9.9396C10.7881 9.09098 11.8083 8.66668 13 8.66668C14.1916 8.66668 15.2118 9.09098 16.0604 9.9396C16.909 10.7882 17.3333 11.8083 17.3333 13C17.3333 14.1917 16.909 15.2118 16.0604 16.0604C15.2118 16.909 14.1916 17.3333 13 17.3333Z" fill="white"/>
</svg>
