<svg width="32" height="32" viewBox="0 0 32 32" fill="none" xmlns="http://www.w3.org/2000/svg">
<path d="M17.4267 13.88C18.2367 12.7483 18.6722 11.3916 18.6722 9.99999C18.6722 8.60837 18.2367 7.25164 17.4267 6.11999C18.1848 5.6026 19.0823 5.32821 20.0001 5.33332C21.2378 5.33332 22.4247 5.82499 23.2999 6.70016C24.1751 7.57533 24.6667 8.76231 24.6667 9.99999C24.6667 11.2377 24.1751 12.4246 23.2999 13.2998C22.4247 14.175 21.2378 14.6667 20.0001 14.6667C19.0823 14.6718 18.1848 14.3974 17.4267 13.88ZM7.33341 9.99999C7.33341 9.07701 7.60711 8.17476 8.11989 7.40733C8.63267 6.6399 9.3615 6.04176 10.2142 5.68855C11.0669 5.33534 12.0053 5.24293 12.9105 5.42299C13.8157 5.60306 14.6473 6.04751 15.2999 6.70016C15.9526 7.3528 16.397 8.18432 16.5771 9.08957C16.7571 9.99481 16.6647 10.9331 16.3115 11.7858C15.9583 12.6386 15.3602 13.3674 14.5927 13.8802C13.8253 14.393 12.9231 14.6667 12.0001 14.6667C10.7624 14.6667 9.57542 14.175 8.70025 13.2998C7.82508 12.4246 7.33341 11.2377 7.33341 9.99999ZM10.0001 9.99999C10.0001 10.3956 10.1174 10.7822 10.3371 11.1111C10.5569 11.44 10.8693 11.6964 11.2347 11.8477C11.6002 11.9991 12.0023 12.0387 12.3903 11.9616C12.7782 11.8844 13.1346 11.6939 13.4143 11.4142C13.694 11.1345 13.8845 10.7781 13.9617 10.3902C14.0388 10.0022 13.9992 9.60007 13.8478 9.23462C13.6965 8.86917 13.4401 8.55681 13.1112 8.33705C12.7823 8.11729 12.3956 7.99999 12.0001 7.99999C11.4696 7.99999 10.9609 8.2107 10.5859 8.58577C10.2108 8.96085 10.0001 9.46956 10.0001 9.99999ZM21.3334 22.6667V25.3333H2.66675V22.6667C2.66675 22.6667 2.66675 17.3333 12.0001 17.3333C21.3334 17.3333 21.3334 22.6667 21.3334 22.6667ZM18.6667 22.6667C18.4801 21.6267 16.8934 20 12.0001 20C7.10675 20 5.42675 21.7467 5.33341 22.6667M21.2667 17.3333C22.084 17.969 22.7521 18.7758 23.2243 19.6971C23.6965 20.6185 23.9613 21.6321 24.0001 22.6667V25.3333H29.3334V22.6667C29.3334 22.6667 29.3334 17.8267 21.2534 17.3333H21.2667Z" fill="white"/>
</svg>
