<svg width="28" height="24" viewBox="0 0 28 24" fill="none" xmlns="http://www.w3.org/2000/svg">
<g clip-path="url(#clip0_544_463)">
<rect width="28" height="23.3333" fill="#253B33"/>
<path fill-rule="evenodd" clip-rule="evenodd" d="M22.0851 4.86108C22.6219 4.86101 23.1515 4.96382 23.6329 5.16157C24.1144 5.35932 24.5349 5.64671 24.8617 6.0015L24.9971 6.15997L26.2454 7.72039C26.5802 8.13865 26.7795 8.62192 26.8241 9.12331L26.8334 9.33914V15.5555C26.8336 16.0461 26.6113 16.5186 26.211 16.8783C25.8107 17.238 25.2621 17.4583 24.6751 17.4951L24.5001 17.5H24.3018C24.0665 18.0544 23.6358 18.5367 23.0659 18.8836C22.4961 19.2304 21.8138 19.4257 21.1084 19.4438C20.4031 19.4619 19.7076 19.3019 19.1133 18.9849C18.5189 18.6678 18.0534 18.2085 17.7778 17.6672L17.6984 17.5H10.3006C10.0652 18.0541 9.63438 18.5361 9.06467 18.8827C8.49495 19.2293 7.81287 19.4245 7.10779 19.4425C6.40272 19.4606 5.70753 19.3008 5.11332 18.984C4.51911 18.6672 4.05359 18.2082 3.77775 17.6672L3.69842 17.5H3.50008C2.91141 17.5001 2.34442 17.3149 1.91278 16.9813C1.48113 16.6477 1.21673 16.1905 1.17258 15.7014L1.16675 15.5555V7.77775C1.1667 7.0338 1.50779 6.31794 2.12025 5.77666C2.7327 5.23538 3.57021 4.90959 4.46141 4.86595L4.66675 4.86108H22.0851ZM21.0001 15.5555C20.6907 15.5555 20.3939 15.658 20.1751 15.8403C19.9563 16.0226 19.8334 16.2699 19.8334 16.5278C19.8334 16.7856 19.9563 17.0329 20.1751 17.2152C20.3939 17.3975 20.6907 17.5 21.0001 17.5C21.3095 17.5 21.6062 17.3975 21.825 17.2152C22.0438 17.0329 22.1667 16.7856 22.1667 16.5278C22.1667 16.2699 22.0438 16.0226 21.825 15.8403C21.6062 15.658 21.3095 15.5555 21.0001 15.5555ZM7.00008 15.5555C6.69066 15.5555 6.39392 15.658 6.17512 15.8403C5.95633 16.0226 5.83342 16.2699 5.83342 16.5278C5.83342 16.7856 5.95633 17.0329 6.17512 17.2152C6.39392 17.3975 6.69066 17.5 7.00008 17.5C7.3095 17.5 7.60625 17.3975 7.82504 17.2152C8.04383 17.0329 8.16675 16.7856 8.16675 16.5278C8.16675 16.2699 8.04383 16.0226 7.82504 15.8403C7.60625 15.658 7.3095 15.5555 7.00008 15.5555ZM18.9794 11.6666H3.50008V15.5555H3.69842C3.93945 14.9863 4.38644 14.4933 4.97778 14.1446C5.56912 13.7959 6.27568 13.6087 7.00008 13.6087C7.72448 13.6087 8.43105 13.7959 9.02238 14.1446C9.61372 14.4933 10.0607 14.9863 10.3017 15.5555H17.6984C17.9395 14.9863 18.3864 14.4933 18.9778 14.1446C19.5691 13.7959 20.2757 13.6087 21.0001 13.6087C21.7245 13.6087 22.431 13.7959 23.0224 14.1446C23.6137 14.4933 24.0607 14.9863 24.3018 15.5555H24.5001V12.6389H21.0001C20.5905 12.6389 20.1882 12.549 19.8335 12.3783C19.4787 12.2077 19.1842 11.9622 18.9794 11.6666ZM22.0851 6.80553H21.0001V10.6944H24.5001V9.33914C24.5001 9.14709 24.4319 8.95934 24.3041 8.79956L23.0557 7.23817C22.9492 7.10505 22.8048 6.99592 22.6355 6.92045C22.4662 6.84498 22.2771 6.8055 22.0851 6.80553ZM7.00008 6.80553H4.66675C4.38099 6.80556 4.10519 6.89299 3.89165 7.05122C3.67811 7.20946 3.54168 7.42751 3.50825 7.664L3.50008 7.77775V9.7222H7.00008V6.80553ZM12.8334 6.80553H9.33342V9.7222H12.8334V6.80553ZM18.6667 6.80553H15.1667V9.7222H18.6667V6.80553Z" fill="white"/>
</g>
<defs>
<clipPath id="clip0_544_463">
<rect width="28" height="23.3333" fill="white"/>
</clipPath>
</defs>
</svg>
